<?xml version="1.0" encoding="UTF-8" standalone="no"?>
<!DOCTYPE svg PUBLIC "-//W3C//DTD SVG 1.1//EN" "http://www.w3.org/Graphics/SVG/1.1/DTD/svg11.dtd">
<svg version="1.1" xmlns="http://www.w3.org/2000/svg" xmlns:xlink="http://www.w3.org/1999/xlink" preserveAspectRatio="xMidYMid meet" viewBox="0 0 12 12" width="12" height="12"><defs><path d="M6.09 10.69C3.54 10.69 1.48 8.59 1.48 6C1.48 3.41 3.54 1.31 6.09 1.31C8.64 1.31 10.71 3.41 10.71 6C10.71 8.59 8.64 10.69 6.09 10.69Z" id="e9R2aoBT6"></path><path d="M12 4.01C10 4.01 6 4.01 0 4.01" id="ajGtJ7FT2"></path><path d="M6.09 0L6.09 12L6.09 0Z" id="a7Z83N80nh"></path><path d="M4.9 2.09L6.21 1.5L7.19 1.73L8.43 2.25L9.5 3.38L2.92 3.44L3.73 2.67L4.9 2.09Z" id="ax99FlHC7"></path><path d="M4.9 2.09L6.21 1.5L7.19 1.73L8.43 2.25L9.5 3.38L2.92 3.44L3.73 2.67L4.9 2.09Z" id="f4PNLgJlp8"></path></defs><g><g><g><use xlink:href="#e9R2aoBT6" opacity="1" fill="#000000" fill-opacity="0"></use><g><use xlink:href="#e9R2aoBT6" opacity="1" fill-opacity="0" stroke="#0000ff" stroke-width="1" stroke-opacity="1"></use></g></g><g><use xlink:href="#ajGtJ7FT2" opacity="1" fill="#000000" fill-opacity="0"></use><g><use xlink:href="#ajGtJ7FT2" opacity="1" fill-opacity="0" stroke="#0000ff" stroke-width="1" stroke-opacity="1"></use></g></g><g><use xlink:href="#a7Z83N80nh" opacity="1" fill="#000000" fill-opacity="0"></use><g><use xlink:href="#a7Z83N80nh" opacity="1" fill-opacity="0" stroke="#0000ff" stroke-width="1" stroke-opacity="1"></use></g></g><g><use xlink:href="#ax99FlHC7" opacity="1" fill="#0000ff" fill-opacity="1"></use><g><use xlink:href="#ax99FlHC7" opacity="1" fill-opacity="0" stroke="#000000" stroke-width="1" stroke-opacity="0"></use></g></g><g><use xlink:href="#f4PNLgJlp8" opacity="1" fill="#000000" fill-opacity="0"></use><g><use xlink:href="#f4PNLgJlp8" opacity="1" fill-opacity="0" stroke="#0000ff" stroke-width="1" stroke-opacity="1"></use></g></g></g></g></svg>